<svg id="Layer_1" data-name="Layer 1" xmlns="http://www.w3.org/2000/svg" xmlns:xlink="http://www.w3.org/1999/xlink" viewBox="0 0 2880 1800"><defs><style>.cls-1{fill:url(#linear-gradient);}.cls-2{fill:url(#linear-gradient-2);}.cls-3{fill:url(#linear-gradient-3);}.cls-4{fill:url(#linear-gradient-4);}.cls-5{fill:none;}</style><linearGradient id="linear-gradient" x1="204.5" y1="-329.5" x2="2697.5" y2="2163.5" gradientUnits="userSpaceOnUse"><stop offset="0" stop-color="#3600c7"/><stop offset="1" stop-color="#cf1e8b"/></linearGradient><linearGradient id="linear-gradient-2" x1="906.95" y1="918.23" x2="1977.24" y2="918.23" gradientUnits="userSpaceOnUse"><stop offset="0" stop-color="#39f"/><stop offset="0.04" stop-color="#3e96fa"/><stop offset="0.3" stop-color="#8285dd"/><stop offset="0.54" stop-color="#b877c5"/><stop offset="0.74" stop-color="#de6db4"/><stop offset="0.9" stop-color="#f667aa"/><stop offset="1" stop-color="#ff65a6"/></linearGradient><linearGradient id="linear-gradient-3" x1="906.95" y1="1504.31" x2="1977.24" y2="1504.31" gradientTransform="translate(1387.17 -340.32) rotate(45)" xlink:href="#linear-gradient-2"/><linearGradient id="linear-gradient-4" x1="906.95" y1="329.41" x2="1977.24" y2="329.41" gradientTransform="translate(735.78 -1117.5) rotate(45)" xlink:href="#linear-gradient-2"/></defs><title>Untitled-1</title><rect class="cls-1" x="-70.5" y="-54.5" width="3043" height="1943"/><path d="M2972-54V1888H-70V-54H2972m1-1H-71V1889H2973V-55Z"/><path class="cls-2" d="M1790.26,593.45h0a39.77,39.77,0,0,1,0-56.24l71.87-71.87a39.78,39.78,0,0,0,0-56.25h0a39.77,39.77,0,0,0-56.24,0L1676.21,538.77a39.77,39.77,0,0,1-56.24,0h0a39.77,39.77,0,0,1,0-56.24l34.38-34.38a39.77,39.77,0,0,0,0-56.24h0a39.78,39.78,0,0,0-56.25,0L954.4,1035.6a39.78,39.78,0,0,0,0,56.25h0a39.77,39.77,0,0,0,56.24,0l84.37-84.37a39.78,39.78,0,0,1,56.25,0h0a39.77,39.77,0,0,0,56.24,0l27.34-27.34a39.78,39.78,0,0,1,56.25,0h0a39.77,39.77,0,0,1,0,56.24l-124.21,124.21a39.78,39.78,0,0,0,0,56.25h0a39.78,39.78,0,0,0,56.25,0l91.39-91.4a39.78,39.78,0,0,1,56.25,0h0a39.77,39.77,0,0,1,0,56.24L1164.15,1388.3a39.76,39.76,0,0,0,0,56.25h0a39.77,39.77,0,0,0,56.24,0l727.28-727.28a39.78,39.78,0,0,0,0-56.25h0a39.77,39.77,0,0,0-56.24,0l-97.26,97.26a39.78,39.78,0,0,1-56.25,0h0a39.77,39.77,0,0,1,0-56.24l52.34-52.34A39.78,39.78,0,0,0,1790.26,593.45Z"/><rect class="cls-3" x="1064.61" y="1464.54" width="79.54" height="79.54" rx="39.77" ry="39.77" transform="translate(-740.24 1221.52) rotate(-45)"/><rect class="cls-4" x="1677.06" y="289.64" width="79.54" height="79.54" rx="39.77" ry="39.77" transform="translate(269.92 1310.47) rotate(-45)"/><polygon class="cls-5" points="1067.26 1007.23 1619.98 454.51 1637 512 1067 1088 1067.26 1007.23"/></svg>